<mxfile host="app.diagrams.net" modified="2024-01-29T18:12:44.748Z" agent="Mozilla/5.0 (Windows NT 10.0; Win64; x64) AppleWebKit/537.36 (KHTML, like Gecko) Chrome/119.0.0.0 Safari/537.36 Edg/119.0.0.0" etag="kIA1TvQcpj3LZdth5ypV" version="22.1.21" type="github">
  <diagram name="Page-1" id="edf60f1a-56cd-e834-aa8a-f176f3a09ee4">
    <mxGraphModel dx="929" dy="453" grid="1" gridSize="10" guides="1" tooltips="1" connect="1" arrows="1" fold="1" page="1" pageScale="1" pageWidth="1100" pageHeight="850" background="none" math="0" shadow="0">
      <root>
        <mxCell id="0" />
        <mxCell id="1" parent="0" />
        <mxCell id="60e70716793133e9-31" style="edgeStyle=orthogonalEdgeStyle;rounded=0;html=1;labelBackgroundColor=none;startSize=5;endArrow=classicThin;endFill=1;endSize=5;jettySize=auto;orthogonalLoop=1;strokeWidth=1;fontFamily=Verdana;fontSize=8" parent="1" target="xzGl1eWzkMot3CBZ7Ww0-4" edge="1">
          <mxGeometry relative="1" as="geometry">
            <mxPoint x="160" y="180" as="sourcePoint" />
            <mxPoint x="250" y="220" as="targetPoint" />
          </mxGeometry>
        </mxCell>
        <mxCell id="xzGl1eWzkMot3CBZ7Ww0-3" value="" style="edgeStyle=orthogonalEdgeStyle;rounded=0;orthogonalLoop=1;jettySize=auto;html=1;" edge="1" parent="1" source="xzGl1eWzkMot3CBZ7Ww0-1">
          <mxGeometry relative="1" as="geometry">
            <mxPoint x="150" y="150" as="targetPoint" />
          </mxGeometry>
        </mxCell>
        <mxCell id="xzGl1eWzkMot3CBZ7Ww0-1" value="InicÃ­o" style="ellipse;whiteSpace=wrap;html=1;" vertex="1" parent="1">
          <mxGeometry x="90" y="60" width="120" height="40" as="geometry" />
        </mxCell>
        <mxCell id="xzGl1eWzkMot3CBZ7Ww0-2" value="saldo" style="html=1;strokeWidth=2;shape=manualInput;whiteSpace=wrap;rounded=1;size=26;arcSize=11;" vertex="1" parent="1">
          <mxGeometry x="100" y="140" width="100" height="60" as="geometry" />
        </mxCell>
        <mxCell id="xzGl1eWzkMot3CBZ7Ww0-7" style="edgeStyle=orthogonalEdgeStyle;rounded=0;orthogonalLoop=1;jettySize=auto;html=1;entryX=1;entryY=0.5;entryDx=0;entryDy=0;" edge="1" parent="1" source="xzGl1eWzkMot3CBZ7Ww0-4" target="xzGl1eWzkMot3CBZ7Ww0-6">
          <mxGeometry relative="1" as="geometry">
            <mxPoint x="340" y="300" as="targetPoint" />
            <Array as="points">
              <mxPoint x="350" y="260" />
            </Array>
          </mxGeometry>
        </mxCell>
        <mxCell id="xzGl1eWzkMot3CBZ7Ww0-4" value="&quot;Saldo inicial:&quot; + saldo" style="strokeWidth=2;html=1;shape=mxgraph.flowchart.display;whiteSpace=wrap;" vertex="1" parent="1">
          <mxGeometry x="300" y="150" width="100" height="60" as="geometry" />
        </mxCell>
        <mxCell id="xzGl1eWzkMot3CBZ7Ww0-9" style="edgeStyle=orthogonalEdgeStyle;rounded=0;orthogonalLoop=1;jettySize=auto;html=1;entryX=0.5;entryY=0;entryDx=0;entryDy=0;" edge="1" parent="1" source="xzGl1eWzkMot3CBZ7Ww0-6" target="xzGl1eWzkMot3CBZ7Ww0-8">
          <mxGeometry relative="1" as="geometry" />
        </mxCell>
        <mxCell id="xzGl1eWzkMot3CBZ7Ww0-14" value="&lt;font style=&quot;font-size: 14px;&quot;&gt;&lt;b&gt;V&lt;/b&gt;&lt;/font&gt;" style="edgeLabel;html=1;align=center;verticalAlign=middle;resizable=0;points=[];" vertex="1" connectable="0" parent="xzGl1eWzkMot3CBZ7Ww0-9">
          <mxGeometry x="-0.2" y="1" relative="1" as="geometry">
            <mxPoint x="-11" as="offset" />
          </mxGeometry>
        </mxCell>
        <mxCell id="xzGl1eWzkMot3CBZ7Ww0-6" value="encerrar = &quot;n&quot;" style="rounded=1;whiteSpace=wrap;html=1;" vertex="1" parent="1">
          <mxGeometry x="90" y="240" width="120" height="40" as="geometry" />
        </mxCell>
        <mxCell id="xzGl1eWzkMot3CBZ7Ww0-12" style="edgeStyle=orthogonalEdgeStyle;rounded=0;orthogonalLoop=1;jettySize=auto;html=1;" edge="1" parent="1" source="xzGl1eWzkMot3CBZ7Ww0-8" target="xzGl1eWzkMot3CBZ7Ww0-10">
          <mxGeometry relative="1" as="geometry" />
        </mxCell>
        <mxCell id="xzGl1eWzkMot3CBZ7Ww0-49" style="edgeStyle=orthogonalEdgeStyle;rounded=0;orthogonalLoop=1;jettySize=auto;html=1;entryX=1;entryY=0.5;entryDx=0;entryDy=0;entryPerimeter=0;" edge="1" parent="1" source="xzGl1eWzkMot3CBZ7Ww0-8" target="xzGl1eWzkMot3CBZ7Ww0-47">
          <mxGeometry relative="1" as="geometry">
            <Array as="points">
              <mxPoint x="550" y="370" />
              <mxPoint x="550" y="1260" />
            </Array>
          </mxGeometry>
        </mxCell>
        <mxCell id="xzGl1eWzkMot3CBZ7Ww0-8" value="encerra = &quot;n&quot;" style="rhombus;whiteSpace=wrap;html=1;" vertex="1" parent="1">
          <mxGeometry x="100" y="320" width="100" height="100" as="geometry" />
        </mxCell>
        <mxCell id="xzGl1eWzkMot3CBZ7Ww0-13" style="edgeStyle=orthogonalEdgeStyle;rounded=0;orthogonalLoop=1;jettySize=auto;html=1;" edge="1" parent="1" source="xzGl1eWzkMot3CBZ7Ww0-10" target="xzGl1eWzkMot3CBZ7Ww0-11">
          <mxGeometry relative="1" as="geometry" />
        </mxCell>
        <mxCell id="xzGl1eWzkMot3CBZ7Ww0-10" value="tipo de entrada" style="html=1;strokeWidth=2;shape=manualInput;whiteSpace=wrap;rounded=1;size=26;arcSize=11;" vertex="1" parent="1">
          <mxGeometry x="100" y="450" width="100" height="60" as="geometry" />
        </mxCell>
        <mxCell id="xzGl1eWzkMot3CBZ7Ww0-16" style="edgeStyle=orthogonalEdgeStyle;rounded=0;orthogonalLoop=1;jettySize=auto;html=1;" edge="1" parent="1" source="xzGl1eWzkMot3CBZ7Ww0-11" target="xzGl1eWzkMot3CBZ7Ww0-15">
          <mxGeometry relative="1" as="geometry" />
        </mxCell>
        <mxCell id="xzGl1eWzkMot3CBZ7Ww0-11" value="quantidade" style="html=1;strokeWidth=2;shape=manualInput;whiteSpace=wrap;rounded=1;size=26;arcSize=11;" vertex="1" parent="1">
          <mxGeometry x="100" y="540" width="100" height="60" as="geometry" />
        </mxCell>
        <mxCell id="xzGl1eWzkMot3CBZ7Ww0-18" value="" style="edgeStyle=orthogonalEdgeStyle;rounded=0;orthogonalLoop=1;jettySize=auto;html=1;" edge="1" parent="1" source="xzGl1eWzkMot3CBZ7Ww0-15" target="xzGl1eWzkMot3CBZ7Ww0-17">
          <mxGeometry relative="1" as="geometry" />
        </mxCell>
        <mxCell id="xzGl1eWzkMot3CBZ7Ww0-22" value="" style="edgeStyle=orthogonalEdgeStyle;rounded=0;orthogonalLoop=1;jettySize=auto;html=1;" edge="1" parent="1" source="xzGl1eWzkMot3CBZ7Ww0-15" target="xzGl1eWzkMot3CBZ7Ww0-21">
          <mxGeometry relative="1" as="geometry" />
        </mxCell>
        <mxCell id="xzGl1eWzkMot3CBZ7Ww0-23" value="&lt;font style=&quot;font-size: 18px;&quot;&gt;&lt;b style=&quot;&quot;&gt;v&lt;/b&gt;&lt;/font&gt;" style="edgeLabel;html=1;align=center;verticalAlign=middle;resizable=0;points=[];" vertex="1" connectable="0" parent="xzGl1eWzkMot3CBZ7Ww0-22">
          <mxGeometry x="0.1143" y="1" relative="1" as="geometry">
            <mxPoint x="69" y="-98" as="offset" />
          </mxGeometry>
        </mxCell>
        <mxCell id="xzGl1eWzkMot3CBZ7Ww0-24" value="&lt;span style=&quot;font-size: 18px;&quot;&gt;&lt;b&gt;F&lt;/b&gt;&lt;/span&gt;" style="edgeLabel;html=1;align=center;verticalAlign=middle;resizable=0;points=[];" vertex="1" connectable="0" parent="xzGl1eWzkMot3CBZ7Ww0-22">
          <mxGeometry x="-0.5131" y="-1" relative="1" as="geometry">
            <mxPoint x="-9" y="8" as="offset" />
          </mxGeometry>
        </mxCell>
        <mxCell id="xzGl1eWzkMot3CBZ7Ww0-28" value="&lt;font style=&quot;font-size: 18px;&quot;&gt;&lt;b style=&quot;&quot;&gt;v&lt;/b&gt;&lt;/font&gt;" style="edgeLabel;html=1;align=center;verticalAlign=middle;resizable=0;points=[];" vertex="1" connectable="0" parent="xzGl1eWzkMot3CBZ7Ww0-22">
          <mxGeometry x="0.1143" y="1" relative="1" as="geometry">
            <mxPoint x="69" y="52" as="offset" />
          </mxGeometry>
        </mxCell>
        <mxCell id="xzGl1eWzkMot3CBZ7Ww0-33" value="&lt;span style=&quot;font-size: 18px;&quot;&gt;&lt;b&gt;F&lt;/b&gt;&lt;/span&gt;" style="edgeLabel;html=1;align=center;verticalAlign=middle;resizable=0;points=[];" vertex="1" connectable="0" parent="xzGl1eWzkMot3CBZ7Ww0-22">
          <mxGeometry x="0.1143" y="1" relative="1" as="geometry">
            <mxPoint x="129" y="142" as="offset" />
          </mxGeometry>
        </mxCell>
        <mxCell id="xzGl1eWzkMot3CBZ7Ww0-40" value="&lt;span style=&quot;font-size: 18px;&quot;&gt;&lt;b&gt;F&lt;/b&gt;&lt;/span&gt;" style="edgeLabel;html=1;align=center;verticalAlign=middle;resizable=0;points=[];" vertex="1" connectable="0" parent="xzGl1eWzkMot3CBZ7Ww0-22">
          <mxGeometry x="0.1143" y="1" relative="1" as="geometry">
            <mxPoint x="-21" y="192" as="offset" />
          </mxGeometry>
        </mxCell>
        <mxCell id="xzGl1eWzkMot3CBZ7Ww0-15" value="tipo de entrada = 1" style="rhombus;whiteSpace=wrap;html=1;" vertex="1" parent="1">
          <mxGeometry x="95" y="640" width="110" height="110" as="geometry" />
        </mxCell>
        <mxCell id="xzGl1eWzkMot3CBZ7Ww0-20" value="" style="edgeStyle=orthogonalEdgeStyle;rounded=0;orthogonalLoop=1;jettySize=auto;html=1;" edge="1" parent="1" source="xzGl1eWzkMot3CBZ7Ww0-17" target="xzGl1eWzkMot3CBZ7Ww0-19">
          <mxGeometry relative="1" as="geometry" />
        </mxCell>
        <mxCell id="xzGl1eWzkMot3CBZ7Ww0-17" value="saldo = saldo + quantidade" style="rounded=1;whiteSpace=wrap;html=1;" vertex="1" parent="1">
          <mxGeometry x="240" y="675" width="120" height="40" as="geometry" />
        </mxCell>
        <mxCell id="xzGl1eWzkMot3CBZ7Ww0-25" style="edgeStyle=orthogonalEdgeStyle;rounded=0;orthogonalLoop=1;jettySize=auto;html=1;" edge="1" parent="1" source="xzGl1eWzkMot3CBZ7Ww0-19">
          <mxGeometry relative="1" as="geometry">
            <mxPoint x="170" y="770" as="targetPoint" />
            <Array as="points">
              <mxPoint x="450" y="770" />
            </Array>
          </mxGeometry>
        </mxCell>
        <mxCell id="xzGl1eWzkMot3CBZ7Ww0-19" value="&quot;Entrada:&quot; + quantidade" style="strokeWidth=2;html=1;shape=mxgraph.flowchart.display;whiteSpace=wrap;" vertex="1" parent="1">
          <mxGeometry x="400" y="665" width="100" height="60" as="geometry" />
        </mxCell>
        <mxCell id="xzGl1eWzkMot3CBZ7Ww0-27" value="" style="edgeStyle=orthogonalEdgeStyle;rounded=0;orthogonalLoop=1;jettySize=auto;html=1;" edge="1" parent="1" source="xzGl1eWzkMot3CBZ7Ww0-21" target="xzGl1eWzkMot3CBZ7Ww0-26">
          <mxGeometry relative="1" as="geometry" />
        </mxCell>
        <mxCell id="xzGl1eWzkMot3CBZ7Ww0-36" value="" style="edgeStyle=orthogonalEdgeStyle;rounded=0;orthogonalLoop=1;jettySize=auto;html=1;" edge="1" parent="1" source="xzGl1eWzkMot3CBZ7Ww0-21" target="xzGl1eWzkMot3CBZ7Ww0-35">
          <mxGeometry relative="1" as="geometry" />
        </mxCell>
        <mxCell id="xzGl1eWzkMot3CBZ7Ww0-21" value="tipo de entrada = 2" style="rhombus;whiteSpace=wrap;html=1;" vertex="1" parent="1">
          <mxGeometry x="95" y="800" width="110" height="110" as="geometry" />
        </mxCell>
        <mxCell id="xzGl1eWzkMot3CBZ7Ww0-30" value="" style="edgeStyle=orthogonalEdgeStyle;rounded=0;orthogonalLoop=1;jettySize=auto;html=1;" edge="1" parent="1" source="xzGl1eWzkMot3CBZ7Ww0-26" target="xzGl1eWzkMot3CBZ7Ww0-29">
          <mxGeometry relative="1" as="geometry" />
        </mxCell>
        <mxCell id="xzGl1eWzkMot3CBZ7Ww0-32" value="" style="edgeStyle=orthogonalEdgeStyle;rounded=0;orthogonalLoop=1;jettySize=auto;html=1;" edge="1" parent="1" source="xzGl1eWzkMot3CBZ7Ww0-26" target="xzGl1eWzkMot3CBZ7Ww0-31">
          <mxGeometry relative="1" as="geometry" />
        </mxCell>
        <mxCell id="xzGl1eWzkMot3CBZ7Ww0-26" value="saldo &amp;gt;= quantidade" style="rhombus;whiteSpace=wrap;html=1;" vertex="1" parent="1">
          <mxGeometry x="245" y="800" width="110" height="110" as="geometry" />
        </mxCell>
        <mxCell id="xzGl1eWzkMot3CBZ7Ww0-38" value="" style="edgeStyle=orthogonalEdgeStyle;rounded=0;orthogonalLoop=1;jettySize=auto;html=1;" edge="1" parent="1" source="xzGl1eWzkMot3CBZ7Ww0-29" target="xzGl1eWzkMot3CBZ7Ww0-34">
          <mxGeometry relative="1" as="geometry" />
        </mxCell>
        <mxCell id="xzGl1eWzkMot3CBZ7Ww0-29" value="saldo = saldo - quantidade" style="rounded=1;whiteSpace=wrap;html=1;" vertex="1" parent="1">
          <mxGeometry x="400" y="835" width="100" height="40" as="geometry" />
        </mxCell>
        <mxCell id="xzGl1eWzkMot3CBZ7Ww0-37" style="edgeStyle=orthogonalEdgeStyle;rounded=0;orthogonalLoop=1;jettySize=auto;html=1;" edge="1" parent="1" source="xzGl1eWzkMot3CBZ7Ww0-31">
          <mxGeometry relative="1" as="geometry">
            <mxPoint x="170" y="1000" as="targetPoint" />
            <Array as="points">
              <mxPoint x="300" y="1000" />
            </Array>
          </mxGeometry>
        </mxCell>
        <mxCell id="xzGl1eWzkMot3CBZ7Ww0-31" value="&quot;Saldo insuficiente&quot;" style="strokeWidth=2;html=1;shape=mxgraph.flowchart.display;whiteSpace=wrap;" vertex="1" parent="1">
          <mxGeometry x="250" y="930" width="100" height="60" as="geometry" />
        </mxCell>
        <mxCell id="xzGl1eWzkMot3CBZ7Ww0-39" style="edgeStyle=orthogonalEdgeStyle;rounded=0;orthogonalLoop=1;jettySize=auto;html=1;exitX=0.5;exitY=1;exitDx=0;exitDy=0;exitPerimeter=0;" edge="1" parent="1" source="xzGl1eWzkMot3CBZ7Ww0-34">
          <mxGeometry relative="1" as="geometry">
            <mxPoint x="170" y="1020" as="targetPoint" />
            <mxPoint x="450.02857142857147" y="1000" as="sourcePoint" />
            <Array as="points">
              <mxPoint x="450" y="1020" />
            </Array>
          </mxGeometry>
        </mxCell>
        <mxCell id="xzGl1eWzkMot3CBZ7Ww0-34" value="&quot;SaÃ­da:&quot; + quantidade" style="strokeWidth=2;html=1;shape=mxgraph.flowchart.display;whiteSpace=wrap;" vertex="1" parent="1">
          <mxGeometry x="400" y="930" width="100" height="60" as="geometry" />
        </mxCell>
        <mxCell id="xzGl1eWzkMot3CBZ7Ww0-42" value="" style="edgeStyle=orthogonalEdgeStyle;rounded=0;orthogonalLoop=1;jettySize=auto;html=1;" edge="1" parent="1" source="xzGl1eWzkMot3CBZ7Ww0-35" target="xzGl1eWzkMot3CBZ7Ww0-41">
          <mxGeometry relative="1" as="geometry" />
        </mxCell>
        <mxCell id="xzGl1eWzkMot3CBZ7Ww0-35" value="saldo" style="strokeWidth=2;html=1;shape=mxgraph.flowchart.display;whiteSpace=wrap;" vertex="1" parent="1">
          <mxGeometry x="100" y="1040" width="100" height="60" as="geometry" />
        </mxCell>
        <mxCell id="xzGl1eWzkMot3CBZ7Ww0-43" style="edgeStyle=orthogonalEdgeStyle;rounded=0;orthogonalLoop=1;jettySize=auto;html=1;exitX=-0.039;exitY=0.685;exitDx=0;exitDy=0;exitPerimeter=0;entryX=0;entryY=0.5;entryDx=0;entryDy=0;" edge="1" parent="1" source="xzGl1eWzkMot3CBZ7Ww0-41" target="xzGl1eWzkMot3CBZ7Ww0-8">
          <mxGeometry relative="1" as="geometry">
            <mxPoint x="30" y="740" as="targetPoint" />
            <mxPoint x="85.02857142857147" y="1182.26" as="sourcePoint" />
            <Array as="points">
              <mxPoint x="30" y="1181" />
              <mxPoint x="30" y="370" />
            </Array>
          </mxGeometry>
        </mxCell>
        <mxCell id="xzGl1eWzkMot3CBZ7Ww0-41" value="encerra ? (s/n)" style="html=1;strokeWidth=2;shape=manualInput;whiteSpace=wrap;rounded=1;size=26;arcSize=11;" vertex="1" parent="1">
          <mxGeometry x="100" y="1140" width="100" height="60" as="geometry" />
        </mxCell>
        <mxCell id="xzGl1eWzkMot3CBZ7Ww0-51" value="" style="edgeStyle=orthogonalEdgeStyle;rounded=0;orthogonalLoop=1;jettySize=auto;html=1;" edge="1" parent="1" source="xzGl1eWzkMot3CBZ7Ww0-47" target="xzGl1eWzkMot3CBZ7Ww0-50">
          <mxGeometry relative="1" as="geometry" />
        </mxCell>
        <mxCell id="xzGl1eWzkMot3CBZ7Ww0-47" value="Sistema encerrado" style="strokeWidth=2;html=1;shape=mxgraph.flowchart.display;whiteSpace=wrap;" vertex="1" parent="1">
          <mxGeometry x="100" y="1230" width="100" height="60" as="geometry" />
        </mxCell>
        <mxCell id="xzGl1eWzkMot3CBZ7Ww0-50" value="Fim" style="ellipse;whiteSpace=wrap;html=1;" vertex="1" parent="1">
          <mxGeometry x="90" y="1330" width="120" height="40" as="geometry" />
        </mxCell>
      </root>
    </mxGraphModel>
  </diagram>
</mxfile>
